<?xml version="1.0" encoding="UTF-8" standalone="no"?>
<!-- Created with Inkscape (http://www.inkscape.org/) -->

<svg
   width="10mm"
   height="10mm"
   viewBox="0 0 10 10"
   version="1.1"
   id="svg1"
   inkscape:version="1.3 (0e150ed6c4, 2023-07-21)"
   sodipodi:docname="Assistant.svg"
   xmlns:inkscape="http://www.inkscape.org/namespaces/inkscape"
   xmlns:sodipodi="http://sodipodi.sourceforge.net/DTD/sodipodi-0.dtd"
   xmlns="http://www.w3.org/2000/svg"
   xmlns:svg="http://www.w3.org/2000/svg">
  <sodipodi:namedview
     id="namedview1"
     pagecolor="#ffffff"
     bordercolor="#000000"
     borderopacity="0.25"
     inkscape:showpageshadow="2"
     inkscape:pageopacity="0.0"
     inkscape:pagecheckerboard="0"
     inkscape:deskcolor="#d1d1d1"
     inkscape:document-units="mm"
     inkscape:zoom="7.7810753"
     inkscape:cx="18.313664"
     inkscape:cy="21.590846"
     inkscape:window-width="1293"
     inkscape:window-height="1020"
     inkscape:window-x="745"
     inkscape:window-y="29"
     inkscape:window-maximized="0"
     inkscape:current-layer="layer1" />
  <defs
     id="defs1" />
  <g
     inkscape:label="Layer 1"
     inkscape:groupmode="layer"
     id="layer1">
    <g
       id="g43980"
       transform="matrix(1.1465865,0,0,1.1465865,-176.11842,135.96562)"
       style="display:inline;stroke:#dad7cd;stroke-opacity:1">
      <path
         d="m 162.00187,-117.59876 v -0.48105 c 0,-0.0273 -0.0229,-0.0504 -0.0498,-0.0504 h -2.45821 c -0.0273,0 -0.0504,0.023 -0.0504,0.0504 v 1.65039 c 0,0.0273 0.0231,0.0504 0.0504,0.0504 h 0.20586 c 0.15547,0 0.28184,0.12636 0.28184,0.28183 v 0.36758 l 0.54551,-0.56367 c 0.0533,-0.0559 0.12363,-0.0857 0.20234,-0.0857 h 1.22246 c 0.0269,0 0.0498,-0.0231 0.0498,-0.0504 v -0.68106 c 0,-0.0863 0.0699,-0.15605 0.15606,-0.15605 0.0863,0 0.15605,0.0699 0.15605,0.15605 v 0.68106 c 0,0.2 -0.1625,0.36269 -0.36211,0.36269 h -1.20957 l -0.58887,0.60859 c -0.0537,0.0562 -0.12675,0.0863 -0.20175,0.0863 -0.0356,0 -0.0715,-0.007 -0.10606,-0.0207 -0.10762,-0.044 -0.17656,-0.14648 -0.17656,-0.26172 v -0.4125 h -0.1756 c -0.2,0 -0.36269,-0.16269 -0.36269,-0.36269 v -1.65039 c 7.8e-4,-0.2 0.16328,-0.3627 0.36328,-0.3627 h 2.4582 c 0.19961,0 0.36211,0.1627 0.36211,0.3627 v 0.48105 c 0,0.0861 -0.0699,0.15605 -0.15605,0.15605 -0.0863,2.3e-4 -0.15625,-0.0697 -0.15625,-0.15605 z m -0.2752,-0.19531 c 0,0.0863 -0.0699,0.15605 -0.15605,0.15605 h -1.6959 c -0.0863,0 -0.15606,-0.0699 -0.15606,-0.15605 0,-0.0861 0.0699,-0.15606 0.15606,-0.15606 h 1.6959 c 0.0863,-2.2e-4 0.15605,0.0697 0.15605,0.15606 z m -0.15605,0.6959 h -1.6959 c -0.0863,0 -0.15606,-0.0699 -0.15606,-0.15606 0,-0.0861 0.0699,-0.15605 0.15606,-0.15605 h 1.6959 c 0.0863,0 0.15605,0.0699 0.15605,0.15605 0,0.0861 -0.0697,0.15606 -0.15605,0.15606 z m -0.84766,0.22695 c 0.0863,0 0.15605,0.0699 0.15605,0.15605 0,0.0861 -0.0699,0.15606 -0.15605,0.15606 h -0.84824 c -0.0863,0 -0.15606,-0.0699 -0.15606,-0.15606 0,-0.0861 0.0699,-0.15605 0.15606,-0.15605 z"
         id="path42907"
         style="fill:#dad7cd;fill-opacity:1;stroke:#dad7cd;stroke-width:0.0195312;stroke-opacity:1"
         sodipodi:nodetypes="cssssssssccssssssssccscscsscsssscscssssscsssssssssssssss" />
      <g
         id="g43366"
         transform="translate(-36.354591,0.46614667)"
         style="fill:none;fill-opacity:1;stroke:#dad7cd;stroke-opacity:1">
        <path
           d="m 194.74865,-115.66659 c 0,0.92046 -0.74621,1.66667 -1.66667,1.66667 -0.92047,0 -1.66667,-0.74621 -1.66667,-1.66667 0,-0.92047 0.7462,-1.66666 1.66667,-1.66666 0.92046,0 1.66667,0.74619 1.66667,1.66666 z"
           id="path43337"
           style="fill:none;fill-opacity:1;stroke:#dad7cd;stroke-width:0.416667;stroke-opacity:1" />
        <path
           d="m 195.99865,-110.66659 c 0,-1.61083 -1.30584,-2.91666 -2.91667,-2.91666 -1.61083,0 -2.91667,1.30583 -2.91667,2.91666 z"
           id="path43339"
           style="fill:none;fill-opacity:1;stroke:#dad7cd;stroke-width:0.416667;stroke-opacity:1" />
      </g>
    </g>
  </g>
</svg>
