<?xml version="1.0" encoding="UTF-8" standalone="no"?>
<!-- Created with Inkscape (http://www.inkscape.org/) -->

<svg
   width="10mm"
   height="10mm"
   viewBox="0 0 10 10"
   version="1.1"
   id="svg1"
   inkscape:version="1.3 (0e150ed6c4, 2023-07-21)"
   sodipodi:docname="Impact.svg"
   xmlns:inkscape="http://www.inkscape.org/namespaces/inkscape"
   xmlns:sodipodi="http://sodipodi.sourceforge.net/DTD/sodipodi-0.dtd"
   xmlns="http://www.w3.org/2000/svg"
   xmlns:svg="http://www.w3.org/2000/svg">
  <sodipodi:namedview
     id="namedview1"
     pagecolor="#ffffff"
     bordercolor="#000000"
     borderopacity="0.25"
     inkscape:showpageshadow="2"
     inkscape:pageopacity="0.0"
     inkscape:pagecheckerboard="0"
     inkscape:deskcolor="#d1d1d1"
     inkscape:document-units="mm"
     inkscape:zoom="7.7810753"
     inkscape:cx="18.313664"
     inkscape:cy="21.590846"
     inkscape:window-width="1293"
     inkscape:window-height="1020"
     inkscape:window-x="745"
     inkscape:window-y="29"
     inkscape:window-maximized="0"
     inkscape:current-layer="layer1" />
  <defs
     id="defs1" />
  <g
     inkscape:label="Layer 1"
     inkscape:groupmode="layer"
     id="layer1">
    <g
       id="g64186"
       transform="matrix(0.02206525,0,0,0.02204833,-0.00373027,4.5085075e-5)"
       style="display:inline;fill:#87b453;fill-opacity:1">
      <path
         d="m 226.771,97.561 c -71.868,0 -130.337,58.469 -130.337,130.339 0,71.868 58.469,130.337 130.337,130.337 71.87,0 130.341,-58.469 130.341,-130.337 0,-71.871 -58.471,-130.339 -130.341,-130.339 z m 0,232.147 c -56.138,0 -101.809,-45.671 -101.809,-101.809 0,-56.138 45.671,-101.811 101.809,-101.811 56.139,0 101.812,45.673 101.812,101.811 0,56.138 -45.673,101.809 -101.812,101.809 z"
         id="path64182"
         style="fill:#87b453;fill-opacity:1" />
      <path
         d="m 442.888,251.304 -23.896,-8.127 c 0.404,-5.1 0.607,-10.209 0.607,-15.279 0,-4.356 -0.149,-8.735 -0.444,-13.104 l 24.235,-7.63 c 3.609,-1.138 6.618,-3.66 8.366,-7.016 1.748,-3.354 2.092,-7.267 0.956,-10.876 l -19.279,-61.224 c -2.367,-7.512 -10.377,-11.691 -17.89,-9.321 l -24.73,7.787 c -4.911,-7.935 -10.392,-15.504 -16.397,-22.648 l 15.425,-21.029 c 4.66,-6.352 3.287,-15.279 -3.065,-19.938 L 335.019,24.936 c -3.05,-2.237 -6.862,-3.176 -10.604,-2.596 -3.739,0.574 -7.096,2.611 -9.334,5.662 L 299.488,49.26 C 290.925,45.773 282.115,42.908 273.13,40.692 V 14.263 c 0,-7.877 -6.386,-14.265 -14.265,-14.265 h -64.187 c -7.878,0 -14.265,6.388 -14.265,14.265 v 26.429 c -7.564,1.868 -15.013,4.196 -22.293,6.97 L 143.008,26.043 C 138.495,19.587 129.6,18.011 123.145,22.525 L 70.537,59.298 c -3.101,2.166 -5.213,5.479 -5.874,9.203 -0.66,3.726 0.188,7.561 2.355,10.661 l 14.957,21.396 C 75.814,107.56 70.167,115 65.079,122.815 l -24.573,-8.356 c -7.452,-2.533 -15.56,1.454 -18.097,8.912 L 1.742,184.139 c -1.218,3.581 -0.964,7.501 0.707,10.895 1.671,3.394 4.623,5.984 8.205,7.203 l 24.076,8.188 c -0.521,5.806 -0.784,11.649 -0.784,17.474 0,3.607 0.104,7.245 0.31,10.89 l -24.103,7.59 c -7.514,2.366 -11.687,10.376 -9.322,17.89 l 19.277,61.224 c 1.136,3.61 3.66,6.619 7.015,8.367 3.356,1.75 7.27,2.093 10.876,0.956 l 23.579,-7.425 c 4.961,8.222 10.536,16.071 16.675,23.478 l -14.552,19.838 c -2.237,3.051 -3.171,6.863 -2.597,10.604 0.574,3.738 2.612,7.096 5.662,9.335 l 51.757,37.963 c 6.351,4.665 15.278,3.287 19.938,-3.064 l 14.331,-19.535 c 8.969,3.729 18.203,6.771 27.622,9.098 v 24.174 c 0,7.878 6.386,14.265 14.265,14.265 h 64.187 c 7.878,0 14.265,-6.387 14.265,-14.265 v -24.176 c 7.99,-1.974 15.851,-4.464 23.529,-7.45 l 13.876,19.849 c 2.168,3.099 5.478,5.213 9.203,5.871 3.725,0.667 7.56,-0.187 10.66,-2.354 l 52.606,-36.776 c 3.101,-2.168 5.213,-5.478 5.873,-9.202 0.66,-3.727 -0.187,-7.561 -2.355,-10.662 l -14.085,-20.146 c 6.31,-7.268 12.064,-14.992 17.214,-23.101 l 23.383,7.954 c 3.583,1.215 7.501,0.965 10.895,-0.709 3.394,-1.672 5.985,-4.621 7.204,-8.203 l 20.667,-60.77 c 1.218,-3.581 0.963,-7.501 -0.708,-10.895 -1.672,-3.399 -4.623,-5.99 -8.205,-7.208 z m -34.171,56.175 -20.837,-7.087 c -6.55,-2.228 -13.751,0.563 -17.088,6.625 -7.232,13.135 -16.249,25.241 -26.798,35.983 -4.813,4.901 -5.449,12.536 -1.513,18.168 l 12.488,17.863 -29.224,20.43 -12.329,-17.635 c -3.961,-5.666 -11.411,-7.678 -17.685,-4.771 -12.562,5.817 -25.822,10.02 -39.413,12.486 -6.784,1.231 -11.716,7.14 -11.716,14.035 v 21.436 h -35.659 v -21.436 c 0,-6.896 -4.933,-12.804 -11.718,-14.035 -14.834,-2.691 -29.236,-7.437 -42.803,-14.104 -6.206,-3.042 -13.702,-1.209 -17.792,4.367 l -12.734,17.359 -28.753,-21.09 12.903,-17.592 c 4.063,-5.539 3.601,-13.188 -1.1,-18.197 -10.295,-10.972 -19.029,-23.275 -25.96,-36.573 -3.197,-6.135 -10.339,-9.088 -16.934,-7.014 l -21.015,6.618 -10.709,-34.013 21.41,-6.741 c 6.532,-2.058 10.682,-8.467 9.882,-15.269 -0.759,-6.465 -1.144,-12.991 -1.144,-19.397 0,-8.401 0.64,-16.845 1.902,-25.095 1.046,-6.834 -2.96,-13.436 -9.507,-15.662 l -21.525,-7.32 11.482,-33.76 21.897,7.447 c 6.486,2.205 13.625,-0.512 17.002,-6.472 7.275,-12.839 16.248,-24.651 26.669,-35.109 4.876,-4.893 5.545,-12.578 1.586,-18.241 L 98.574,74.508 127.8,54.078 141.317,73.414 c 3.938,5.633 11.333,7.658 17.59,4.814 12.216,-5.549 25.109,-9.578 38.319,-11.976 6.785,-1.231 11.718,-7.14 11.718,-14.035 v -23.69 h 35.659 v 23.69 c 0,6.896 4.932,12.804 11.716,14.035 14.456,2.624 28.482,7.183 41.689,13.55 6.189,2.981 13.63,1.127 17.695,-4.414 l 13.946,-19.013 28.753,21.09 -13.827,18.852 c -4.087,5.571 -3.592,13.271 1.174,18.275 10.185,10.689 18.889,22.704 25.873,35.71 3.24,6.036 10.313,8.913 16.852,6.858 l 22.035,-6.938 10.709,34.013 -21.669,6.822 c -6.597,2.078 -10.753,8.588 -9.861,15.445 0.919,7.069 1.385,14.268 1.385,21.395 0,7.668 -0.548,15.445 -1.626,23.113 -0.955,6.784 3.047,13.287 9.532,15.493 l 21.221,7.216 z"
         id="path64184"
         style="fill:#87b453;fill-opacity:1" />
    </g>
  </g>
</svg>
