<?xml version="1.0" encoding="UTF-8" standalone="no"?>
<!-- Created with Inkscape (http://www.inkscape.org/) -->

<svg
   width="10mm"
   height="10mm"
   viewBox="0 0 10 10"
   version="1.1"
   id="svg1"
   inkscape:version="1.3 (0e150ed6c4, 2023-07-21)"
   sodipodi:docname="Leader.svg"
   xmlns:inkscape="http://www.inkscape.org/namespaces/inkscape"
   xmlns:sodipodi="http://sodipodi.sourceforge.net/DTD/sodipodi-0.dtd"
   xmlns="http://www.w3.org/2000/svg"
   xmlns:svg="http://www.w3.org/2000/svg">
  <sodipodi:namedview
     id="namedview1"
     pagecolor="#ffffff"
     bordercolor="#000000"
     borderopacity="0.25"
     inkscape:showpageshadow="2"
     inkscape:pageopacity="0.0"
     inkscape:pagecheckerboard="0"
     inkscape:deskcolor="#d1d1d1"
     inkscape:document-units="mm"
     inkscape:zoom="7.7810753"
     inkscape:cx="18.313664"
     inkscape:cy="21.590846"
     inkscape:window-width="1293"
     inkscape:window-height="1020"
     inkscape:window-x="745"
     inkscape:window-y="29"
     inkscape:window-maximized="0"
     inkscape:current-layer="layer1" />
  <defs
     id="defs1" />
  <g
     inkscape:label="Layer 1"
     inkscape:groupmode="layer"
     id="layer1">
    <path
       d="m 9.7810353,8.8094385 c -0.07887,-0.736894 -0.576252,-1.333183 -1.241602,-1.564766 0.245935,-0.186953 0.405096,-0.482443 0.405096,-0.814493 0,-0.563965 -0.458807,-1.022774 -1.022775,-1.022774 -0.563962,0 -1.022773,0.458809 -1.022773,1.022774 0,0.33215 0.159258,0.627715 0.405331,0.814669 -0.195013,0.06812 -0.378102,0.168671 -0.542224,0.298749 -0.06314,-0.07332 -0.130996,-0.143124 -0.203575,-0.20875 -0.252618,-0.228457 -0.549065,-0.396231 -0.86834,-0.49539 0.338578,-0.224454 0.562405,-0.608771 0.562405,-1.044533 0,-0.690625 -0.561881,-1.252519 -1.252523,-1.252519 -0.690642,0 -1.25252,0.561894 -1.25252,1.252519 0,0.435762 0.223814,0.820079 0.562385,1.044533 -0.319298,0.09914 -0.615763,0.266933 -0.868381,0.49539 -0.07258,0.06562 -0.140449,0.135431 -0.203569,0.20875 -0.164122,-0.130078 -0.34721,-0.230624 -0.542208,-0.298749 0.246069,-0.186954 0.405333,-0.482519 0.405333,-0.814687 0,-0.563967 -0.458813,-1.022776 -1.022775,-1.022776 -0.563968,0 -1.022775,0.458809 -1.022775,1.022776 0,0.33205 0.159161,0.627519 0.405079,0.814491 -0.66539096,0.231603 -1.16277596,0.827871 -1.24161896,1.564805 -0.0048,0.0441 0.0095,0.0881 0.03911,0.121076 0.02964,0.03297 0.07187,0.05179 0.116208,0.05179 H 2.6880143 v 0.281993 c 0,0.405663 0.330019,0.735683 0.73569,0.735683 h 3.152558 c 0.40564,0 0.735682,-0.33002 0.735682,-0.735683 v -0.281989 h 2.313694 c 0.04436,0 0.08659,-0.01883 0.116207,-0.05179 0.02964,-0.03297 0.04388,-0.07701 0.03918,-0.121094 z m -1.859281,-3.089553 c 0.391643,0 0.710279,0.318614 0.710279,0.710276 0,0.391638 -0.318618,0.710252 -0.710279,0.710252 -0.39166,0 -0.710269,-0.318614 -0.710269,-0.710252 0,-0.391644 0.318627,-0.710276 0.710269,-0.710276 z m -3.861736,0.07504 c 0,-0.51832 0.421678,-0.94002 0.940019,-0.94002 0.518341,0 0.940019,0.4217 0.940019,0.94002 0,0.518146 -0.421406,0.939727 -0.939512,0.940001 -1.45e-4,0 -3.08e-4,0 -4.65e-4,0 -1.5e-4,0 -3.13e-4,0 -4.65e-4,0 -0.518087,-3.11e-4 -0.939494,-0.421855 -0.939494,-0.940001 z m -1.981698,-0.07504 c 0.391636,0 0.710272,0.318614 0.710272,0.710276 0,0.391638 -0.318612,0.710252 -0.710272,0.710252 -0.391661,0 -0.710278,-0.318614 -0.710278,-0.710252 0,-0.391644 0.318617,-0.710276 0.710278,-0.710276 z m 0.630016,2.949963 H 0.55798834 c 0.155992,-0.704746 0.78144196,-1.216913 1.52030796,-1.216913 0.356312,0 0.696588,0.120313 0.971938,0.340801 -0.171994,0.26453 -0.288846,0.562226 -0.341898,0.876112 z m 4.291153,0.594475 c 0,0.233338 -0.189842,0.423182 -0.423181,0.423182 h -3.152576 c -0.233345,0 -0.423187,-0.189844 -0.423187,-0.423182 v -0.429747 c 0.113123,-1.019319 0.971015,-1.786897 1.998943,-1.78715 1.5e-4,0 3.14e-4,2e-5 4.7e-4,2e-5 1.45e-4,0 3.08e-4,-2e-5 4.65e-4,-2e-5 1.027912,1.55e-4 1.88578,0.767831 1.998928,1.787129 v 0.429768 z m 0.292207,-0.594494 c -0.05306,-0.313867 -0.169902,-0.611563 -0.341891,-0.876075 0.275331,-0.220488 0.6156,-0.3408 0.971931,-0.3408 0.738866,0 1.364318,0.512148 1.52031,1.216894 h -2.15035 z m -3.81988,-6.321802 c -0.02873,0.08842 -4.7e-4,0.183224 0.07199,0.241506 l 0.645213,0.518574 -0.217167,0.798809 c -0.02439,0.08971 0.0084,0.182988 0.08369,0.237676 0.07522,0.05465 0.1741,0.05702 0.251876,0.0061 l 0.692598,-0.453359 0.692653,0.453417 c 0.03731,0.02441 0.07948,0.03657 0.121543,0.03654 0.04564,0 0.09118,-0.0143 0.130297,-0.04272 0.07524,-0.05465 0.108083,-0.147928 0.08369,-0.237674 l -0.217167,-0.798791 0.645232,-0.518613 c 0.07244,-0.05824 0.100701,-0.153008 0.07199,-0.241446 -0.02873,-0.08847 -0.10734,-0.148535 -0.200194,-0.153028 l -0.826818,-0.04031 -0.293809,-0.773867 c -0.03302,-0.08693 -0.114415,-0.143126 -0.207402,-0.143126 -0.09299,0 -0.174414,0.05617 -0.207401,0.143106 l -0.293827,0.773887 -0.826762,0.04029 c -0.09292,0.0045 -0.171541,0.06459 -0.20023,0.153008 z m 1.10146,0.115939 c 0.08815,-0.0043 0.165318,-0.06037 0.196603,-0.142852 l 0.23014,-0.606133 0.230152,0.606171 c 0.03133,0.08246 0.1085,0.138536 0.196585,0.142814 l 0.647617,0.03158 -0.50537,0.406173 c -0.06877,0.05527 -0.09826,0.146015 -0.0751,0.231113 l 0.170098,0.625664 -0.542443,-0.355097 c -0.03688,-0.02419 -0.07924,-0.03627 -0.121538,-0.03627 -0.04231,0 -0.08461,0.0121 -0.121489,0.03624 l -0.542479,0.355118 0.17008,-0.625644 c 0.02318,-0.08512 -0.0063,-0.175841 -0.07508,-0.231133 l -0.505374,-0.406172 z m 0.270491,-1.734318 v -0.573399 c 0,-0.08629 0.06996,-0.156249 0.156252,-0.156249 0.08629,0 0.156251,0.06996 0.156251,0.156249 v 0.573399 c 0,0.08629 -0.06996,0.15625 -0.156251,0.15625 -0.08629,0 -0.156252,-0.06996 -0.156252,-0.15625 z m 0.951525,0.925743 c -0.05776,-0.06412 -0.05258,-0.16293 0.01159,-0.220665 l 0.639004,-0.575351 c 0.06412,-0.05775 0.162909,-0.05256 0.220663,0.01157 0.0577,0.06412 0.05258,0.162929 -0.01159,0.220663 l -0.638985,0.575352 c -0.02988,0.0269 -0.06725,0.04014 -0.104511,0.04014 -0.04273,0 -0.08531,-0.01742 -0.116177,-0.0517 z m -2.4618,-0.784454 c 0.05776,-0.06414 0.156565,-0.06929 0.220669,-0.01157 l 0.638977,0.57535 c 0.06412,0.05775 0.0693,0.156544 0.01159,0.220666 -0.03085,0.03426 -0.07344,0.05169 -0.116172,0.05169 -0.03724,0 -0.07462,-0.01325 -0.104513,-0.04014 l -0.638944,-0.575353 c -0.06414,-0.05773 -0.06932,-0.156542 -0.01159,-0.220663 z"
       id="path33584"
       style="display:inline;fill:#dad7cd;fill-opacity:1;stroke:#dad7cd;stroke-width:0.0195312;stroke-opacity:1" />
  </g>
</svg>
