<?xml version="1.0" encoding="UTF-8" standalone="no"?>
<!-- Created with Inkscape (http://www.inkscape.org/) -->

<svg
   width="10mm"
   height="10mm"
   viewBox="0 0 10 10"
   version="1.1"
   id="svg1"
   inkscape:version="1.3 (0e150ed6c4, 2023-07-21)"
   sodipodi:docname="Mentor.svg"
   xmlns:inkscape="http://www.inkscape.org/namespaces/inkscape"
   xmlns:sodipodi="http://sodipodi.sourceforge.net/DTD/sodipodi-0.dtd"
   xmlns="http://www.w3.org/2000/svg"
   xmlns:svg="http://www.w3.org/2000/svg">
  <sodipodi:namedview
     id="namedview1"
     pagecolor="#ffffff"
     bordercolor="#000000"
     borderopacity="0.25"
     inkscape:showpageshadow="2"
     inkscape:pageopacity="0.0"
     inkscape:pagecheckerboard="0"
     inkscape:deskcolor="#d1d1d1"
     inkscape:document-units="mm"
     inkscape:zoom="7.7810753"
     inkscape:cx="18.313664"
     inkscape:cy="21.590846"
     inkscape:window-width="1293"
     inkscape:window-height="1020"
     inkscape:window-x="745"
     inkscape:window-y="29"
     inkscape:window-maximized="0"
     inkscape:current-layer="layer1" />
  <defs
     id="defs1" />
  <g
     inkscape:label="Layer 1"
     inkscape:groupmode="layer"
     id="layer1">
    <g
       id="Layer_2"
       data-name="Layer 2"
       transform="matrix(0.34711268,0,0,0.34711268,-0.55380288,-0.55380288)"
       style="display:inline;fill:none;stroke:#dad7cd;stroke-opacity:1">
      <path
         d="m 11.475,12.851 a 1,1 0 0 0 0.972,0.044 L 14.236,12 H 19 a 2,2 0 0 0 2,-2 V 6 A 2,2 0 0 0 19,4 h -6 a 2,2 0 0 0 -2,2 v 6 a 1,1 0 0 0 0.475,0.851 z"
         id="path44181"
         style="fill:none;stroke:#dad7cd;stroke-opacity:1" />
      <circle
         cx="9"
         cy="18"
         r="4"
         id="circle44183"
         style="fill:none;stroke:#dad7cd;stroke-opacity:1" />
      <path
         d="m 13.66,21.78 a 6,6 0 0 1 -9.32,0 6.991,6.991 0 0 0 -2.21,3.88 1.939,1.939 0 0 0 0.41,1.6 A 2.027,2.027 0 0 0 4.1,28 h 9.8 a 2.027,2.027 0 0 0 1.56,-0.74 1.931,1.931 0 0 0 0.41,-1.6 6.991,6.991 0 0 0 -2.21,-3.88 z"
         id="path44185"
         style="fill:none;stroke:#dad7cd;stroke-opacity:1" />
      <circle
         cx="23"
         cy="18"
         r="4"
         id="circle44187"
         style="fill:none;stroke:#dad7cd;stroke-opacity:1" />
      <path
         d="m 29.87,25.66 a 6.991,6.991 0 0 0 -2.21,-3.88 6,6 0 0 1 -9.32,0 6.991,6.991 0 0 0 -2.21,3.88 1.931,1.931 0 0 0 0.41,1.6 2.027,2.027 0 0 0 1.56,0.74 h 9.8 a 2.027,2.027 0 0 0 1.56,-0.74 1.939,1.939 0 0 0 0.41,-1.6 z"
         id="path44189"
         style="fill:none;stroke:#dad7cd;stroke-opacity:1" />
    </g>
  </g>
</svg>
