<?xml version="1.0" encoding="UTF-8" standalone="no"?>
<!-- Created with Inkscape (http://www.inkscape.org/) -->

<svg
   width="10mm"
   height="10mm"
   viewBox="0 0 10 10"
   version="1.1"
   id="svg1"
   inkscape:version="1.3 (0e150ed6c4, 2023-07-21)"
   sodipodi:docname="Organiser.svg"
   xmlns:inkscape="http://www.inkscape.org/namespaces/inkscape"
   xmlns:sodipodi="http://sodipodi.sourceforge.net/DTD/sodipodi-0.dtd"
   xmlns="http://www.w3.org/2000/svg"
   xmlns:svg="http://www.w3.org/2000/svg">
  <sodipodi:namedview
     id="namedview1"
     pagecolor="#ffffff"
     bordercolor="#000000"
     borderopacity="0.25"
     inkscape:showpageshadow="2"
     inkscape:pageopacity="0.0"
     inkscape:pagecheckerboard="0"
     inkscape:deskcolor="#d1d1d1"
     inkscape:document-units="mm"
     inkscape:zoom="7.7810753"
     inkscape:cx="18.313664"
     inkscape:cy="21.590846"
     inkscape:window-width="1293"
     inkscape:window-height="1020"
     inkscape:window-x="745"
     inkscape:window-y="29"
     inkscape:window-maximized="0"
     inkscape:current-layer="layer1" />
  <defs
     id="defs1" />
  <g
     inkscape:label="Layer 1"
     inkscape:groupmode="layer"
     id="layer1">
    <path
       d="M 8.7938802,7.1874425 V 5.7774894 A 0.15807828,0.1556237 0 0 0 8.6357977,5.6218618 H 5.1580762 V 4.0593989 a 2.0550177,2.0231081 0 1 0 -0.3161545,0 V 5.6218618 H 1.3642003 a 0.15807828,0.1556237 0 0 0 -0.158081,0.1556276 v 1.4099531 a 1.4227045,1.4006132 0 1 0 0.3161546,0 V 5.9331172 h 3.3196488 v 1.2543253 a 1.4227045,1.4006132 0 1 0 0.3161548,0 V 5.9331172 h 3.3196492 v 1.2543253 a 1.4227045,1.4006132 0 1 0 0.3161535,0 z M 3.9930383,3.4369078 a 1.0069607,0.99132496 0 0 1 2.0139213,0 1.7325379,1.7056357 0 0 1 -2.0139213,0 z M 4.5131195,1.6604667 A 0.48688109,0.47932097 0 1 1 5.0000042,2.1405579 0.48767152,0.48009912 0 0 1 4.5131195,1.6604667 Z M 3.2611382,2.0425236 A 1.738861,1.7118606 0 1 1 6.2970305,3.181682 1.3278576,1.307239 0 0 0 5.5327227,2.2479454 a 0.80303767,0.79056839 0 1 0 -1.0646581,0 A 1.3278576,1.307239 0 0 0 3.7037568,3.181682 1.7317475,1.7048576 0 0 1 3.2611382,2.0425236 Z M 0.73188098,9.4727714 a 0.63231313,0.62249478 0 0 1 1.26068252,0 1.1010153,1.0839191 0 0 1 -1.26068252,0 z M 1.1270769,8.3452773 A 0.23711741,0.23343553 0 1 1 1.3642003,8.5787189 0.23711741,0.23343553 0 0 1 1.1270769,8.3452773 Z M 2.4707466,8.5787189 A 1.0994346,1.0823628 0 0 1 2.262087,9.2128839 0.94846968,0.93374218 0 0 0 1.7981297,8.6822018 a 0.55327399,0.54468293 0 1 0 -0.86943272,0 0.94846968,0.93374218 0 0 0 -0.4639583,0.5306821 1.106548,1.0893659 0 1 1 2.00600792,-0.634165 z m 1.896938,0.8940525 a 0.63231313,0.62249478 0 0 1 1.2606724,0 1.1010153,1.0839191 0 0 1 -1.2606724,0 z M 4.7628805,8.3452773 A 0.23711741,0.23343553 0 1 1 5.0000029,8.5787189 0.23711741,0.23343553 0 0 1 4.7628805,8.3452773 Z m 1.34367,0.2334416 A 1.0994346,1.0823628 0 0 1 5.897891,9.2128839 0.94846968,0.93374218 0 0 0 5.4339235,8.6822018 a 0.55327399,0.54468293 0 1 0 -0.8694227,0 0.94846968,0.93374218 0 0 0 -0.4639681,0.5306821 1.106548,1.0893659 0 1 1 2.0060178,-0.634165 z m 1.896938,0.8940525 a 0.63231313,0.62249478 0 0 1 1.2606725,0 1.1010153,1.0839191 0 0 1 -1.2606725,0 z M 8.3986842,8.3452773 A 0.23711741,0.23343553 0 1 1 8.635799,8.5787189 0.23711741,0.23343553 0 0 1 8.3986842,8.3452773 Z m 1.1349977,0.8676066 a 0.94846968,0.93374218 0 0 0 -0.4639572,-0.5306821 0.55327399,0.54468293 0 1 0 -0.8694329,0 0.94846968,0.93374218 0 0 0 -0.4639572,0.5306821 1.106548,1.0893659 0 1 1 1.7949801,0 z"
       id="path43067"
       style="display:inline;fill:#dad7cd;fill-opacity:1;stroke:#dad7cd;stroke-width:0.0784227;stroke-opacity:1" />
  </g>
</svg>
