<?xml version="1.0" encoding="UTF-8" standalone="no"?>
<!-- Created with Inkscape (http://www.inkscape.org/) -->

<svg
   width="10mm"
   height="10mm"
   viewBox="0 0 10 10"
   version="1.1"
   id="svg1"
   inkscape:version="1.3 (0e150ed6c4, 2023-07-21)"
   sodipodi:docname="Folio.svg"
   xmlns:inkscape="http://www.inkscape.org/namespaces/inkscape"
   xmlns:sodipodi="http://sodipodi.sourceforge.net/DTD/sodipodi-0.dtd"
   xmlns="http://www.w3.org/2000/svg"
   xmlns:svg="http://www.w3.org/2000/svg">
  <sodipodi:namedview
     id="namedview1"
     pagecolor="#ffffff"
     bordercolor="#000000"
     borderopacity="0.25"
     inkscape:showpageshadow="2"
     inkscape:pageopacity="0.0"
     inkscape:pagecheckerboard="0"
     inkscape:deskcolor="#d1d1d1"
     inkscape:document-units="mm"
     inkscape:zoom="7.7810753"
     inkscape:cx="18.313664"
     inkscape:cy="21.590846"
     inkscape:window-width="1293"
     inkscape:window-height="1020"
     inkscape:window-x="745"
     inkscape:window-y="29"
     inkscape:window-maximized="0"
     inkscape:current-layer="layer1" />
  <defs
     id="defs1" />
  <g
     inkscape:label="Layer 1"
     inkscape:groupmode="layer"
     id="layer1">
    <g
       id="g60583"
       transform="matrix(0.16260163,0,0,0.16260163,-0.20325216,-0.20325216)"
       style="display:inline;fill:#87b453;fill-opacity:1">
      <path
         d="M 56.716,8.654 49.761,1.855 C 49.364,1.467 48.83,1.25 48.275,1.25 H 8.77 c -1.174,0 -2.126,0.952 -2.126,2.126 v 16.367 24.514 16.367 c 0,1.174 0.952,2.126 2.126,2.126 h 46.46 c 1.174,0 2.126,-0.952 2.126,-2.126 V 10.175 c 0,-0.572 -0.231,-1.121 -0.64,-1.521 z M 53.104,58.498 H 10.896 V 44.257 19.743 5.502 h 35.253 v 4.673 c 0,1.174 0.952,2.126 2.126,2.126 h 4.829 z"
         fill="#3c4752"
         id="path60569"
         style="fill:#87b453;fill-opacity:1" />
      <g
         fill="#2f7abf"
         id="g60581"
         style="fill:#87b453;fill-opacity:1">
        <path
           d="M 46.04,46.49 H 17.96 c -1.013,0 -1.834,-0.821 -1.834,-1.834 0,-1.013 0.821,-1.834 1.834,-1.834 h 28.08 c 1.013,0 1.834,0.821 1.834,1.834 0,1.013 -0.821,1.834 -1.834,1.834 z"
           id="path60571"
           style="fill:#87b453;fill-opacity:1" />
        <path
           d="M 46.04,53.644 H 17.96 c -1.013,0 -1.834,-0.821 -1.834,-1.834 0,-1.013 0.821,-1.834 1.834,-1.834 h 28.08 c 1.013,0 1.834,0.821 1.834,1.834 0,1.012 -0.821,1.834 -1.834,1.834 z"
           id="path60573"
           style="fill:#87b453;fill-opacity:1" />
        <g
           id="g60579"
           style="fill:#87b453;fill-opacity:1">
          <path
             d="m 33.405,31.805 -0.79,-5.441 -0.002,-0.128 0.596,-0.67 0.027,-0.159 c 0.068,-0.406 -0.246,-0.776 -0.658,-0.776 l -1.168,0.001 c -0.412,0 -0.725,0.37 -0.657,0.777 l 0.026,0.158 0.668,0.689 -0.874,5.496 -1.586,-7.342 -0.076,-0.285 -0.208,0.123 c -0.777,0.462 -1.625,0.791 -2.511,0.972 -1.735,0.355 -3.342,0.776 -3.913,2.709 -0.39,1.321 -0.423,6.631 -0.508,8.774 -0.018,0.465 0.307,0.873 0.765,0.96 1.33,0.251 3.857,0.722 7.138,0.885 v 10e-4 c 0.038,0.002 0.077,0.003 0.116,0.005 0.18,0.009 0.36,0.016 0.541,0.023 0.066,0.002 0.132,0.005 0.199,0.007 0.148,0.005 0.297,0.008 0.445,0.011 -0.031,-10e-4 -0.062,-0.002 -0.094,-0.002 v 10e-4 c 0.031,10e-4 0.062,10e-4 0.093,0.002 0.021,0 0.042,0.001 0.063,0.001 0.029,10e-4 0.057,0.002 0.086,0.002 0.022,0 0.044,0.001 0.066,0.002 V 38.6 c 0.032,10e-4 0.063,0 0.094,10e-4 0.197,0.003 0.393,0.005 0.589,0.005 0.15,0 0.301,-0.002 0.452,-0.003 -0.151,0.002 -0.302,0.003 -0.452,0.003 4.074,0 7.876,-0.647 9.579,-0.95 0.462,-0.082 0.794,-0.492 0.775,-0.961 C 42.142,34.55 42.108,29.25 41.718,27.931 41.144,25.988 39.513,25.573 37.775,25.216 36.869,25.03 36.001,24.691 35.21,24.212 l -0.192,-0.116 z m -0.295,6.779 c -0.032,10e-4 -0.064,10e-4 -0.095,0.002 v -10e-4 c 0.032,-10e-4 0.064,-0.002 0.096,-0.003 0,10e-4 -10e-4,0.002 -10e-4,0.002 z m -1.92,0.012 h 0.01 c -0.003,0.001 -0.006,0.001 -0.01,0 z"
             id="path60575"
             style="fill:#87b453;fill-opacity:1" />
          <path
             d="m 36.617,14.717 c 0.002,-0.019 -10e-4,-0.037 -0.004,-0.055 -0.068,-0.326 -0.148,-0.648 -0.293,-0.95 -0.03,-0.063 -0.057,-0.127 -0.081,-0.193 -0.083,-0.224 -0.164,-0.45 -0.246,-0.674 -0.006,-0.017 -0.013,-0.035 -0.019,-0.052 0.007,-0.004 0.014,-0.008 0.021,-0.012 0.12,0.189 0.24,0.378 0.359,0.568 -0.018,-0.064 -0.041,-0.127 -0.066,-0.188 -0.109,-0.264 -0.249,-0.507 -0.46,-0.704 -0.044,-0.041 -0.085,-0.087 -0.118,-0.137 -0.22,-0.327 -0.485,-0.602 -0.851,-0.765 -0.161,-0.071 -0.324,-0.139 -0.486,-0.208 -0.041,-0.017 -0.081,-0.035 -0.122,-0.052 0.55,0.044 1.062,0.215 1.556,0.449 -0.016,-0.017 -0.035,-0.03 -0.053,-0.042 -0.504,-0.341 -1.068,-0.512 -1.667,-0.582 -0.224,-0.026 -0.451,-0.025 -0.665,-0.111 -0.075,-0.03 -0.156,-0.046 -0.235,-0.067 -0.113,-0.029 -0.226,-0.056 -0.338,-0.084 0.001,-0.006 0.001,-0.013 0.002,-0.019 h 1.036 c -0.008,-0.02 -0.017,-0.026 -0.027,-0.028 -0.451,-0.065 -0.902,-0.114 -1.358,-0.073 -0.156,0.014 -0.31,0.021 -0.465,0 -0.069,-0.009 -0.138,-0.012 -0.207,-0.018 0,-0.007 -10e-4,-0.013 -10e-4,-0.02 0.338,-0.063 0.676,-0.126 1.034,-0.193 -0.359,0.009 -0.697,0.032 -1.031,0.092 -0.187,0.033 -0.369,0.093 -0.557,0.117 -0.268,0.035 -0.539,0.049 -0.81,0.072 0.536,-0.255 1.109,-0.366 1.693,-0.431 -0.11,0.003 -0.22,-0.002 -0.329,0.004 -0.405,0.021 -0.806,0.069 -1.199,0.176 -0.325,0.089 -0.634,0.213 -0.899,0.428 -0.05,0.041 -0.111,0.069 -0.167,0.103 -0.006,-0.009 -0.011,-0.017 -0.017,-0.026 0.122,-0.088 0.239,-0.184 0.367,-0.263 0.13,-0.081 0.267,-0.152 0.405,-0.218 0.134,-0.063 0.274,-0.113 0.411,-0.169 -0.272,0.069 -0.534,0.165 -0.787,0.289 -0.5,0.246 -0.876,0.655 -1.308,0.99 -0.002,0.001 -0.004,0.003 -0.005,0.005 -0.028,0.045 -0.058,0.089 -0.082,0.136 -0.037,0.07 -0.064,0.145 -0.106,0.211 -0.019,0.03 -0.059,0.051 -0.095,0.065 -0.071,0.029 -0.147,0.046 -0.217,0.077 -0.373,0.167 -0.592,0.459 -0.686,0.852 0.089,-0.178 0.202,-0.339 0.367,-0.484 -0.045,0.154 -0.082,0.29 -0.125,0.425 -0.017,0.055 -0.042,0.109 -0.074,0.157 -0.088,0.134 -0.155,0.277 -0.207,0.447 0.07,-0.12 0.132,-0.224 0.193,-0.328 0.005,0.003 0.01,0.005 0.015,0.008 -0.006,0.028 -0.012,0.057 -0.019,0.085 -0.151,0.66 -0.239,1.326 -0.209,2.004 0.013,0.293 0.051,0.579 0.142,0.854 -0.013,0.198 -0.019,0.401 -0.019,0.609 v 0.008 c 0.027,1.353 0.643,3.065 1.608,4.466 0.759,1.102 1.745,1.721 2.776,1.743 0.019,0 0.037,0.001 0.056,0.001 1.019,0 2.017,-0.582 2.815,-1.643 0.955,-1.271 1.508,-2.751 1.689,-4.527 0.018,-0.178 0.029,-0.353 0.033,-0.526 0.09,-0.459 0.07,-0.921 0.022,-1.383 -0.029,-0.276 -0.075,-0.55 -0.115,-0.839 0.044,0.114 0.086,0.215 0.122,0.318 0.039,0.1 0.07,0.203 0.103,0.305 z m -0.943,2.045 c -0.166,1.63 -0.668,2.983 -1.535,4.136 -0.657,0.874 -1.447,1.345 -2.228,1.33 -0.784,-0.016 -1.526,-0.502 -2.147,-1.404 -0.776,-1.128 -1.196,-2.268 -1.371,-3.17 0.024,-0.258 0.034,-0.518 0.039,-0.778 0.001,-0.031 -0.002,-0.064 0.007,-0.094 0.027,-0.093 0.063,-0.183 0.087,-0.276 0.078,-0.299 0.15,-0.6 0.231,-0.899 0.022,-0.082 0.062,-0.16 0.105,-0.234 0.083,-0.143 0.18,-0.142 0.275,-0.006 0.015,0.022 0.03,0.045 0.05,0.074 0.029,-0.28 0.07,-0.376 0.206,-0.52 0.135,-0.142 0.304,-0.22 0.489,-0.243 1.073,0.477 2.702,0.851 4.428,-0.033 0.114,0.002 0.228,0.011 0.342,0.046 0.189,0.058 0.331,0.169 0.413,0.344 0.052,0.112 0.077,0.238 0.113,0.353 0.024,-0.028 0.053,-0.068 0.088,-0.103 0.081,-0.08 0.146,-0.068 0.193,0.036 0.019,0.043 0.037,0.089 0.044,0.135 0.034,0.223 0.061,0.448 0.095,0.671 0.026,0.171 0.058,0.34 0.088,0.51 -0.004,0.043 -0.007,0.084 -0.012,0.125 z"
             id="path60577"
             style="fill:#87b453;fill-opacity:1" />
        </g>
      </g>
    </g>
  </g>
</svg>
