<?xml version="1.0" encoding="UTF-8" standalone="no"?>
<!-- Created with Inkscape (http://www.inkscape.org/) -->

<svg
   width="8.7462358mm"
   height="11.015865mm"
   viewBox="0 0 8.7462358 11.015865"
   version="1.1"
   id="svg1"
   inkscape:version="1.3 (0e150ed6c4, 2023-07-21)"
   sodipodi:docname="participantFolio.svg"
   xmlns:inkscape="http://www.inkscape.org/namespaces/inkscape"
   xmlns:sodipodi="http://sodipodi.sourceforge.net/DTD/sodipodi-0.dtd"
   xmlns="http://www.w3.org/2000/svg"
   xmlns:svg="http://www.w3.org/2000/svg">
  <sodipodi:namedview
     id="namedview1"
     pagecolor="#ffffff"
     bordercolor="#000000"
     borderopacity="0.25"
     inkscape:showpageshadow="2"
     inkscape:pageopacity="0.0"
     inkscape:pagecheckerboard="0"
     inkscape:deskcolor="#d1d1d1"
     inkscape:document-units="mm"
     inkscape:zoom="1.6612489"
     inkscape:cx="397.89342"
     inkscape:cy="343.41634"
     inkscape:window-width="1920"
     inkscape:window-height="991"
     inkscape:window-x="-9"
     inkscape:window-y="-9"
     inkscape:window-maximized="1"
     inkscape:current-layer="layer1" />
  <defs
     id="defs1" />
  <g
     inkscape:label="Layer 1"
     inkscape:groupmode="layer"
     id="layer1"
     transform="translate(-151.53752,-21.048328)">
    <path
       id="rect18"
       style="opacity:1;fill:#87b453;fill-opacity:1;stroke:none;stroke-width:1.07935;stroke-dasharray:none;stroke-opacity:1"
       d="m 153.12709,21.048328 c -0.88072,0 -1.58957,0.70885 -1.58957,1.589567 v 7.836214 c 0,0.880716 0.70885,1.590084 1.58957,1.590084 h 5.5671 c 0.88072,0 1.58957,-0.709368 1.58957,-1.590084 v -7.836214 c 0,-0.880717 -0.70885,-1.589567 -1.58957,-1.589567 z m -0.81597,0.77618 h 0.49196 v 8.972062 h 3.52485 c 1.73519,0 2.69182,-0.860712 2.69182,-2.459282 0,-0.655823 -0.0823,-1.079728 -0.24598,-1.284676 l -0.25941,-0.300757 -0.17777,-0.17725 0.15038,-0.150378 0.13642,-0.218591 c 0.23237,-0.423551 0.34158,-0.88773 0.34158,-1.420586 0,-1.625894 -0.94282,-2.487186 -2.63704,-2.487186 h -2.60966 v 1.27124 h 0.45061 2.28204 c 0.27331,0 0.57375,0.09546 0.75137,0.259416 0.2733,0.259584 0.40979,0.573968 0.40979,0.95653 0,0.724137 -0.43702,1.133781 -1.16116,1.133781 h -2.28204 v 1.311548 h 2.28204 c 0.72414,0 1.20199,0.43726 1.20199,1.147734 0,0.218618 -0.0408,0.409877 -0.12299,0.560172 -0.19115,0.396226 -0.54617,0.587561 -1.079,0.587561 h -2.28204 v -1.789554 -0.505913 h -0.45061 v 0.505913 2.158524 h 2.93728 c 0.2733,0 0.51909,-0.06802 0.75138,-0.204639 0.4782,-0.286915 0.71055,-0.697105 0.71055,-1.257287 0,-0.997396 -0.58733,-1.625741 -1.50275,-1.625741 h -1.96732 V 26.31519 h 1.96732 c 0.87442,0 1.44797,-0.66956 1.44797,-1.612305 0,-0.273252 -0.0681,-0.533058 -0.1912,-0.765328 -0.2733,-0.464542 -0.76508,-0.751375 -1.21595,-0.751375 h -2.47271 v -0.49196 h 2.47271 c 0.36891,0 0.71044,0.08202 0.99736,0.24598 0.57386,0.341572 0.91571,0.997556 0.91571,1.762683 0,0.860767 -0.36909,1.516709 -0.98392,1.858284 l 0.35501,0.259416 c 0.4509,0.396227 0.66973,0.929155 0.66973,1.612305 0,0.546519 -0.2047,1.02487 -0.601,1.421102 -0.42354,0.368897 -0.87469,0.546736 -1.35289,0.546736 h -3.41581 v -3.170349 -1.311548 -0.491959 -3.602364 h 3.55896 c 1.67845,0.143069 2.64428,1.198179 2.64428,2.960542 0,0.696813 -0.16379,1.297916 -0.47801,1.776119 0.36891,0.478203 0.54622,1.065646 0.54622,1.776119 0,1.858168 -1.20212,2.950725 -3.18326,2.950725 h -4.01733 z m 1.40715,2.222086 v 1.380278 h 0.45061 v 0.0036 h 0.49196 v -0.0036 h 1.79008 c 0.4509,0 0.66921,-0.218259 0.66921,-0.641822 0,-0.478201 -0.273,-0.738456 -0.66921,-0.738456 h -1.79008 -0.49196 z m 0.94257,3.689698 v 1.297595 h 1.79008 c 0.4782,0 0.71055,-0.218571 0.71055,-0.655774 0,-0.423552 -0.2324,-0.641821 -0.71055,-0.641821 z"
       inkscape:export-filename="rect18.svg"
       inkscape:export-xdpi="96"
       inkscape:export-ydpi="96" />
  </g>
</svg>
