<?xml version="1.0" encoding="UTF-8" standalone="no"?>
<!-- Created with Inkscape (http://www.inkscape.org/) -->

<svg
   width="10mm"
   height="10mm"
   viewBox="0 0 10 10"
   version="1.1"
   id="svg1"
   inkscape:version="1.3 (0e150ed6c4, 2023-07-21)"
   sodipodi:docname="Review.svg"
   xmlns:inkscape="http://www.inkscape.org/namespaces/inkscape"
   xmlns:sodipodi="http://sodipodi.sourceforge.net/DTD/sodipodi-0.dtd"
   xmlns="http://www.w3.org/2000/svg"
   xmlns:svg="http://www.w3.org/2000/svg">
  <sodipodi:namedview
     id="namedview1"
     pagecolor="#ffffff"
     bordercolor="#000000"
     borderopacity="0.25"
     inkscape:showpageshadow="2"
     inkscape:pageopacity="0.0"
     inkscape:pagecheckerboard="0"
     inkscape:deskcolor="#d1d1d1"
     inkscape:document-units="mm"
     inkscape:zoom="7.7810753"
     inkscape:cx="18.313664"
     inkscape:cy="21.590846"
     inkscape:window-width="1293"
     inkscape:window-height="1020"
     inkscape:window-x="745"
     inkscape:window-y="29"
     inkscape:window-maximized="0"
     inkscape:current-layer="layer1" />
  <defs
     id="defs1" />
  <g
     inkscape:label="Layer 1"
     inkscape:groupmode="layer"
     id="layer1">
    <path
       id="rect67051"
       style="display:inline;fill:#a3b18a;fill-opacity:1;stroke:none;stroke-width:0.0963255;stroke-linecap:round;stroke-linejoin:round;stroke-dasharray:none;stroke-opacity:1"
       d="M 4.969182,1.1310556e-4 C 4.3190014,0.01647671 3.8002751,0.54582121 3.8002751,1.2001618 c 0,0.018182 1.818e-4,0.035455 9.091e-4,0.053091 H 2.2988234 c -0.557999,0 -1.0072709,0.4493446 -1.0072709,1.0073436 V 8.9926742 C 1.2915525,9.5506552 1.7408244,10 2.2988234,10 H 7.701177 C 8.2591759,10 8.7084475,9.5506552 8.7084475,8.9926742 v -6.732078 c 0,-0.557999 -0.4492716,-1.0073436 -1.0072705,-1.0073436 H 6.1988161 c 9.091e-4,-0.018182 0.00145,-0.035091 0.00145,-0.053091 0,-0.66472239 -0.5352717,-1.20004869444 -1.1999977,-1.20004869444 -0.018182,0 -0.02,-2.545e-4 -0.030909,0 z M 4.987364,0.71647181 h 5.455e-4 c 0,-9.09e-5 0.018182,0 0.018182,0 0.2679995,0 0.4836354,0.2156905 0.4836354,0.48368999 0,0.018182 -0.00145,0.035636 0,0.053091 H 4.5284556 c -0.00145,-0.018182 0,-0.035091 0,-0.053091 0,-0.26379949 0.2089087,-0.47708999 0.47109,-0.48368999 z M 6.5380882,3.2740307 7.4848137,4.2202471 4.4610012,7.2304592 2.5159139,5.2853906 3.5650028,4.2362289 4.5704555,5.2416815 Z" />
  </g>
</svg>
