<?xml version="1.0" encoding="UTF-8" standalone="no"?>
<!-- Created with Inkscape (http://www.inkscape.org/) -->

<svg
   width="8mm"
   height="10mm"
   viewBox="0 0 8 10"
   version="1.1"
   id="svg1"
   inkscape:version="1.3 (0e150ed6c4, 2023-07-21)"
   sodipodi:docname="SuperUser.svg"
   xmlns:inkscape="http://www.inkscape.org/namespaces/inkscape"
   xmlns:sodipodi="http://sodipodi.sourceforge.net/DTD/sodipodi-0.dtd"
   xmlns="http://www.w3.org/2000/svg"
   xmlns:svg="http://www.w3.org/2000/svg">
  <sodipodi:namedview
     id="namedview1"
     pagecolor="#ffffff"
     bordercolor="#000000"
     borderopacity="0.25"
     inkscape:showpageshadow="2"
     inkscape:pageopacity="0.0"
     inkscape:pagecheckerboard="0"
     inkscape:deskcolor="#d1d1d1"
     inkscape:document-units="mm"
     inkscape:zoom="7.7810753"
     inkscape:cx="36.820104"
     inkscape:cy="21.655105"
     inkscape:window-width="1920"
     inkscape:window-height="991"
     inkscape:window-x="-9"
     inkscape:window-y="-9"
     inkscape:window-maximized="1"
     inkscape:current-layer="layer1" />
  <defs
     id="defs1" />
  <g
     inkscape:label="Layer 1"
     inkscape:groupmode="layer"
     id="layer1">
    <path
       d="M 7.7826582,7.6545277 6.2597471,5.7823262 6.5237548,5.5156633 C 6.6955604,5.3421265 6.7902527,5.1114038 6.7902527,4.8659856 c 0,-0.2454191 -0.094662,-0.4762177 -0.2664979,-0.6496777 0,-7.78e-5 -4.94e-5,-7.78e-5 -4.94e-5,-1.547e-4 L 5.3930807,3.0742698 C 5.1731038,2.8519997 4.8315182,2.6597313 4.4840533,2.545588 4.7354031,2.2760317 4.8899462,1.9133484 4.8899462,1.5147239 c 0,-0.82983972 -0.6683888,-1.50502588 -1.489967,-1.50502588 -0.8216572,0 -1.4900461,0.67518616 -1.4900461,1.50502588 0,0.3986245 0.1544641,0.7613078 0.4058831,1.0308641 C 1.9683512,2.6596554 1.6267755,2.8519997 1.4067887,3.0742698 L 0.27611462,4.2163079 C 0.10430898,4.3898447 0.00969583,4.6205665 0.00969583,4.8659856 c 0,0.2454182 0.09466256,0.4761409 0.26641879,0.6496009 L 0.89626309,6.1420404 C 1.0680687,6.3155772 1.2964941,6.4111405 1.5394745,6.4111405 c 0.1149685,0 0.2266862,-0.021398 0.330647,-0.062369 v 2.7227519 c 0,0.5065997 0.4080767,0.9187786 0.9096401,0.9187786 0.2395022,0 0.4576016,-0.093889 0.6202176,-0.2471705 0.1626061,0.1532822 0.3807056,0.2471705 0.6201386,0.2471705 0.5015535,0 0.9096302,-0.4121789 0.9096302,-0.9187786 V 8.7375475 h 2.3461592 c 0.3197184,0 0.562017,-0.1258694 0.6646142,-0.3452462 0.1026861,-0.2193 0.045059,-0.4882474 -0.1578632,-0.7377786 z M 3.3999792,0.59449879 c 0.5023044,0 0.9109839,0.41278801 0.9109839,0.92022511 0,0.5073602 -0.4086795,0.920224 -0.9109839,0.920224 -0.5023934,0 -0.9110728,-0.4128638 -0.9110728,-0.920224 0,-0.5074371 0.4086794,-0.92022511 0.9110728,-0.92022511 z M 1.7733246,5.7284909 c -0.06245,0.063128 -0.1455017,0.09785 -0.2338501,0.09785 -0.088338,0 -0.171361,-0.034722 -0.233781,-0.09785 L 0.68547586,5.102038 C 0.62302626,5.038991 0.58863946,4.9551524 0.58863946,4.8659856 c 0,-0.089247 0.0343868,-0.1730797 0.0968364,-0.236205 L 1.8162192,3.4877425 C 2.0629644,3.2384408 2.5857033,3.0197497 2.9348284,3.0197497 h 0.9302128 c 0.349125,0 0.8717947,0.2186911 1.1186091,0.4679928 l 1.1305951,1.1420381 c 5.93e-5,0 5.93e-5,0 5.93e-5,7.68e-5 0.062449,0.063048 0.096836,0.1469625 0.096836,0.2361292 0,0.089167 -0.034387,0.1730798 -0.096836,0.2361283 l -0.6201485,0.626377 c -0.1289111,0.1302868 -0.338641,0.1302868 -0.4676311,0 -0.062054,-0.062668 -0.096441,-0.1458187 -0.096836,-0.2343766 v -0.00349 c 3.854e-4,-0.088558 0.034782,-0.1717084 0.096836,-0.2343776 L 5.208212,5.0727329 C 5.26246,5.0179089 5.292993,4.943513 5.292993,4.8659966 5.292993,4.7884076 5.26246,4.7140089 5.208212,4.6591844 L 4.8449173,4.2923123 C 4.7621122,4.2087047 4.6376774,4.1836524 4.5294182,4.2288854 4.4212381,4.2741874 4.3507451,4.3807963 4.3507451,4.4990506 v 0.9904316 c 0,9.142e-4 0,0.002 0,0.00289 0,9.9e-4 0,0.002 0,0.00289 V 5.6471828 H 2.4491046 V 5.4957281 c 0,-0.0011 0,-0.0022 0,-0.00339 0,-0.0011 0,-0.0022 0,-0.00339 V 4.4989678 c 0,-0.1182543 -0.070552,-0.2248592 -0.1786731,-0.2701662 -0.1081802,-0.045232 -0.2327138,-0.020251 -0.3154991,0.063357 l -0.3632947,0.366947 c -0.054248,0.054824 -0.084781,0.1292199 -0.084781,0.2067363 0,0.077589 0.030533,0.1519877 0.084781,0.2068131 l 0.1816869,0.1835116 c 0.061955,0.062589 0.096243,0.1456669 0.096836,0.2340731 v 0.00399 c -5.435e-4,0.088478 -0.034782,0.1715577 -0.096836,0.2341491 z m 2.5774402,3.3430377 c 0,0.1841212 -0.1483573,0.3339771 -0.330647,0.3339771 -0.1823687,0 -0.330657,-0.1497791 -0.330657,-0.3339771 v -1.87913 c 0,-0.1615063 -0.129662,-0.2924009 -0.2894816,-0.2924009 -0.1598987,0 -0.2894915,0.1308946 -0.2894915,0.2924009 v 1.87913 c 0,0.1841212 -0.1483673,0.3339771 -0.3307261,0.3339771 -0.1822897,0 -0.330657,-0.1497791 -0.330657,-0.3339771 v -2.83956 H 4.3507648 Z M 7.2759072,8.1527517 H 4.929748 v -1.804509 c 0.3030585,0.1189409 0.6570055,0.067848 0.9164185,-0.1531285 l 1.4891469,1.8307021 c 0.041304,0.050792 0.060276,0.087869 0.06907,0.1105642 -0.022925,0.00759 -0.063438,0.016368 -0.1284565,0.016368 z m 0,0"
       style="display:inline;fill:#dad7cd;fill-opacity:1;fill-rule:nonzero;stroke:#dad7cd;stroke-width:0.0193962;stroke-opacity:1"
       id="path44005" />
  </g>
</svg>
