<?xml version="1.0" encoding="UTF-8" standalone="no"?>
<!-- Created with Inkscape (http://www.inkscape.org/) -->

<svg
   width="10mm"
   height="10mm"
   viewBox="0 0 10 10"
   version="1.1"
   id="svg1"
   inkscape:version="1.3 (0e150ed6c4, 2023-07-21)"
   sodipodi:docname="Visits.svg"
   xmlns:inkscape="http://www.inkscape.org/namespaces/inkscape"
   xmlns:sodipodi="http://sodipodi.sourceforge.net/DTD/sodipodi-0.dtd"
   xmlns="http://www.w3.org/2000/svg"
   xmlns:svg="http://www.w3.org/2000/svg">
  <sodipodi:namedview
     id="namedview1"
     pagecolor="#ffffff"
     bordercolor="#000000"
     borderopacity="0.25"
     inkscape:showpageshadow="2"
     inkscape:pageopacity="0.0"
     inkscape:pagecheckerboard="0"
     inkscape:deskcolor="#d1d1d1"
     inkscape:document-units="mm"
     inkscape:zoom="7.7810753"
     inkscape:cx="18.313664"
     inkscape:cy="21.590846"
     inkscape:window-width="1293"
     inkscape:window-height="1020"
     inkscape:window-x="745"
     inkscape:window-y="29"
     inkscape:window-maximized="0"
     inkscape:current-layer="layer1" />
  <defs
     id="defs1" />
  <g
     inkscape:label="Layer 1"
     inkscape:groupmode="layer"
     id="layer1">
    <g
       id="g64281"
       transform="matrix(0.02570046,0,0,0.02403904,-0.78261559,-0.40890526)"
       style="display:inline;fill:#87b453;fill-opacity:1">
      <g
         id="g64267"
         style="fill:#87b453;fill-opacity:1">
        <g
           id="g64257"
           style="fill:#87b453;fill-opacity:1">
          <path
             d="m 77.39,346.04 c -2.39,0 -4.75,-1.06 -6.33,-3.1 C 11.21,265.77 18.23,155.42 87.4,86.25 c 31.33,-31.33 71.09,-50.58 115,-55.69 42.59,-4.95 86.18,4.41 122.72,26.37 3.79,2.28 5.01,7.19 2.74,10.98 -2.28,3.79 -7.19,5.01 -10.98,2.74 -70.35,-42.27 -160.06,-31.2 -218.17,26.91 -63.48,63.48 -69.93,164.75 -15,235.57 2.71,3.49 2.07,8.52 -1.42,11.22 -1.46,1.14 -3.18,1.69 -4.9,1.69 z"
             id="path64251"
             style="fill:#87b453;fill-opacity:1" />
          <g
             id="g64255"
             style="fill:#87b453;fill-opacity:1">
            <path
               d="m 282.16,81.57 c -3.58,0 -6.85,-2.43 -7.76,-6.06 -1.07,-4.29 1.54,-8.63 5.82,-9.7 l 31.09,-7.77 -7.77,-31.09 c -1.07,-4.29 1.54,-8.63 5.82,-9.7 4.29,-1.07 8.63,1.54 9.7,5.82 l 9.71,38.85 c 1.07,4.29 -1.54,8.63 -5.82,9.7 l -38.85,9.71 c -0.65,0.16 -1.3,0.24 -1.94,0.24 z"
               id="path64253"
               style="fill:#87b453;fill-opacity:1" />
          </g>
        </g>
        <g
           id="g64265"
           style="fill:#87b453;fill-opacity:1">
          <path
             d="m 225.28,418.43 c -33.44,0 -66.72,-8.59 -95.79,-24.98 -3.85,-2.17 -5.21,-7.05 -3.04,-10.9 2.17,-3.85 7.05,-5.21 10.9,-3.04 69.49,39.18 157.47,27.11 213.95,-29.37 63.48,-63.48 69.93,-164.75 15,-235.57 -2.71,-3.49 -2.07,-8.52 1.42,-11.23 3.49,-2.71 8.52,-2.07 11.22,1.42 59.85,77.18 52.83,187.53 -16.33,256.69 -30.66,30.66 -69.54,49.81 -112.43,55.37 -8.27,1.08 -16.6,1.61 -24.9,1.61 z"
             id="path64259"
             style="fill:#87b453;fill-opacity:1" />
          <g
             id="g64263"
             style="fill:#87b453;fill-opacity:1">
            <path
               d="m 144.16,433 c -3.5,0 -6.71,-2.31 -7.7,-5.85 l -10.77,-38.57 c -1.19,-4.26 1.3,-8.67 5.55,-9.86 l 38.57,-10.77 c 4.25,-1.19 8.67,1.3 9.86,5.55 1.19,4.26 -1.3,8.67 -5.55,9.86 l -30.87,8.62 8.62,30.87 c 1.19,4.26 -1.3,8.67 -5.55,9.86 -0.72,0.2 -1.44,0.29 -2.16,0.29 z"
               id="path64261"
               style="fill:#87b453;fill-opacity:1" />
          </g>
        </g>
      </g>
      <g
         id="g64279"
         style="fill:#87b453;fill-opacity:1">
        <g
           id="g64271"
           style="fill:#87b453;fill-opacity:1">
          <path
             d="m 225,340.01 c -63.41,0 -115,-51.59 -115,-115.01 0,-63.42 51.59,-115 115,-115 63.41,0 115,51.59 115,115 0,63.41 -51.59,115.01 -115,115.01 z M 225,126 c -54.59,0 -99,44.41 -99,99 0,54.59 44.41,99.01 99,99.01 54.59,0 99,-44.41 99,-99.01 0,-54.59 -44.41,-99 -99,-99 z"
             id="path64269"
             style="fill:#87b453;fill-opacity:1" />
        </g>
        <g
           id="g64277"
           style="fill:#87b453;fill-opacity:1">
          <path
             d="m 297.07,312.09 c -3.68,0 -6.99,-2.56 -7.81,-6.3 -5.76,-26.41 -29.58,-45.58 -56.66,-45.58 h -15.2 c -27.08,0 -50.91,19.17 -56.66,45.58 -0.94,4.32 -5.2,7.05 -9.52,6.11 -4.32,-0.94 -7.05,-5.2 -6.11,-9.52 3.54,-16.24 12.62,-31 25.57,-41.56 13.14,-10.71 29.74,-16.61 46.72,-16.61 h 15.19 c 16.99,0 33.58,5.9 46.72,16.61 12.95,10.56 22.04,25.32 25.58,41.56 0.94,4.32 -1.8,8.58 -6.11,9.52 -0.57,0.12 -1.14,0.19 -1.71,0.19 z"
             id="path64273"
             style="fill:#87b453;fill-opacity:1" />
          <path
             d="m 225,260.21 c -27.13,0 -49.19,-22.07 -49.19,-49.19 0,-27.12 22.07,-49.19 49.19,-49.19 27.12,0 49.19,22.07 49.19,49.19 0,27.12 -22.06,49.19 -49.19,49.19 z m 0,-82.39 c -18.3,0 -33.19,14.89 -33.19,33.19 0,18.3 14.89,33.19 33.19,33.19 18.3,0 33.19,-14.89 33.19,-33.19 0,-18.3 -14.89,-33.19 -33.19,-33.19 z"
             id="path64275"
             style="fill:#87b453;fill-opacity:1" />
        </g>
      </g>
    </g>
  </g>
</svg>
