<?xml version="1.0" encoding="UTF-8" standalone="no"?>
<!-- Created with Inkscape (http://www.inkscape.org/) -->

<svg
   width="12.436305mm"
   height="12.436325mm"
   viewBox="0 0 12.436305 12.436325"
   version="1.1"
   id="svg1"
   inkscape:version="1.3 (0e150ed6c4, 2023-07-21)"
   sodipodi:docname="participantFolio.svg"
   xmlns:inkscape="http://www.inkscape.org/namespaces/inkscape"
   xmlns:sodipodi="http://sodipodi.sourceforge.net/DTD/sodipodi-0.dtd"
   xmlns="http://www.w3.org/2000/svg"
   xmlns:svg="http://www.w3.org/2000/svg">
  <sodipodi:namedview
     id="namedview1"
     pagecolor="#ffffff"
     bordercolor="#000000"
     borderopacity="0.25"
     inkscape:showpageshadow="2"
     inkscape:pageopacity="0.0"
     inkscape:pagecheckerboard="0"
     inkscape:deskcolor="#d1d1d1"
     inkscape:document-units="mm"
     inkscape:zoom="1.6612489"
     inkscape:cx="397.89342"
     inkscape:cy="343.41634"
     inkscape:window-width="1920"
     inkscape:window-height="991"
     inkscape:window-x="-9"
     inkscape:window-y="-9"
     inkscape:window-maximized="1"
     inkscape:current-layer="layer1" />
  <defs
     id="defs1" />
  <g
     inkscape:label="Layer 1"
     inkscape:groupmode="layer"
     id="layer1"
     transform="translate(-141.02291,-28.310416)">
    <path
       id="rect17232-2"
       style="display:inline;fill:#87b453;fill-opacity:1;stroke:none;stroke-width:1.24363;stroke-linecap:round"
       d="m 145.84216,28.310417 c -2.66984,0 -4.81924,2.149421 -4.81924,4.819254 v 2.797819 c 0,2.669833 2.1494,4.819251 4.81924,4.819251 h 2.79782 c 2.66984,0 4.81924,-2.149418 4.81924,-4.819251 v -2.797819 c 0,-2.669833 -2.1494,-4.819254 -4.81924,-4.819254 z m -2.20156,1.470209 h 0.49202 v 9.003891 h 3.525 c 1.7352,0 2.69149,-0.860674 2.69149,-2.459246 0,-0.655825 -0.0822,-1.079714 -0.24592,-1.284662 l -0.25947,-0.300629 -0.17759,-0.177622 0.1502,-0.15009 0.13666,-0.218474 c 0.23237,-0.423552 0.34149,-0.888152 0.34149,-1.421008 0,-1.625898 -0.94266,-2.486765 -2.63689,-2.486765 h -2.60976 v 1.270901 h 0.45073 2.28205 c 0.27331,0 0.57375,0.0954 0.75137,0.259356 0.27331,0.259586 0.40988,0.57395 0.40988,0.956514 0,0.724137 -0.4371,1.134136 -1.16125,1.134136 h -2.28205 v 1.311347 h 2.28205 c 0.72415,0 1.2021,0.437425 1.2021,1.1479 0,0.218619 -0.0409,0.409687 -0.1231,0.559982 -0.19115,0.396226 -0.54625,0.5875 -1.07909,0.5875 h -2.28205 v -1.789604 -0.505778 h -0.45073 v 0.505778 2.158615 h 2.93751 c 0.2733,0 0.51908,-0.0681 0.75137,-0.204723 0.4782,-0.286917 0.71049,-0.696956 0.71049,-1.25714 0,-0.997398 -0.5873,-1.625736 -1.50272,-1.625736 h -1.96765 v -0.492015 h 1.96765 c 0.87442,0 1.44811,-0.669649 1.44811,-1.612396 0,-0.273252 -0.0683,-0.532856 -0.19143,-0.765126 -0.27331,-0.464542 -0.76501,-0.751367 -1.21588,-0.751367 H 145.5122 V 30.68215 h 2.47299 c 0.36891,0 0.71046,0.08205 0.99738,0.246007 0.57386,0.341574 0.91564,0.997372 0.91564,1.762501 0,0.860769 -0.3692,1.516827 -0.98403,1.858404 l 0.35525,0.259355 c 0.4509,0.396227 0.66966,0.929244 0.66966,1.612394 0,0.546521 -0.20498,1.024778 -0.60128,1.42101 -0.42354,0.368899 -0.87442,0.546637 -1.35262,0.546637 h -3.41576 v -3.170169 -1.311346 -0.492015 -3.620902 h 3.1564 c 1.92649,0 3.04674,1.079625 3.04674,2.97878 0,0.696813 -0.16404,1.298056 -0.47826,1.776261 0.36891,0.478203 0.54665,1.065783 0.54665,1.776258 0,1.858171 -1.20236,2.950847 -3.18351,2.950847 h -4.01702 z m 1.40726,2.2541 v 1.380147 h 0.45073 v 0.0035 h 0.49201 v -0.0035 h 1.79001 c 0.4509,0 0.66923,-0.218561 0.66923,-0.642124 0,-0.478203 -0.27302,-0.738023 -0.66923,-0.738023 h -1.79001 -0.49201 z m 0.94274,3.689287 v 1.298004 h 1.79001 c 0.4782,0 0.71052,-0.218677 0.71052,-0.655882 0,-0.423552 -0.23237,-0.642122 -0.71052,-0.642122 z"
       inkscape:export-filename="..\..\logo.svg"
       inkscape:export-xdpi="96"
       inkscape:export-ydpi="96" />
  </g>
</svg>
