<?xml version="1.0" encoding="UTF-8" standalone="no"?>
<!-- Created with Inkscape (http://www.inkscape.org/) -->

<svg
   version="1.1"
   id="svg1"
   width="320"
   height="350"
   viewBox="0 0 320 350"
   sodipodi:docname="avitar.svg"
   inkscape:version="1.3 (0e150ed6c4, 2023-07-21)"
   inkscape:export-filename="avitar.png"
   inkscape:export-xdpi="96"
   inkscape:export-ydpi="96"
   xmlns:inkscape="http://www.inkscape.org/namespaces/inkscape"
   xmlns:sodipodi="http://sodipodi.sourceforge.net/DTD/sodipodi-0.dtd"
   xmlns="http://www.w3.org/2000/svg"
   xmlns:svg="http://www.w3.org/2000/svg">
  <defs
     id="defs1" />
  <sodipodi:namedview
     id="namedview1"
     pagecolor="#ffffff"
     bordercolor="#000000"
     borderopacity="0.25"
     inkscape:showpageshadow="2"
     inkscape:pageopacity="0.0"
     inkscape:pagecheckerboard="0"
     inkscape:deskcolor="#d1d1d1"
     showguides="false"
     inkscape:zoom="0.8117387"
     inkscape:cx="89.930417"
     inkscape:cy="281.49452"
     inkscape:window-width="1920"
     inkscape:window-height="991"
     inkscape:window-x="-9"
     inkscape:window-y="-9"
     inkscape:window-maximized="1"
     inkscape:current-layer="layer2" />
  <g
     inkscape:groupmode="layer"
     inkscape:label="Image"
     id="g1" />
  <g
     inkscape:groupmode="layer"
     id="layer1"
     inkscape:label="Image 1" />
  <g
     inkscape:groupmode="layer"
     id="layer2"
     inkscape:label="Image 2">
    <path
       id="rect2"
       style="fill:#87b453;stroke:#dad7cd;stroke-width:0.541213;fill-opacity:1"
       d="m 37.114462,0.2706049 c -20.412194,0 -36.843856,16.4564171 -36.843856,36.8993641 V 312.83003 c 0,20.44295 16.431662,36.89937 36.843856,36.89937 H 282.88553 c 20.4122,0 36.84386,-16.45642 36.84386,-36.89937 V 37.169969 c 0,-20.442947 -16.43166,-36.8993641 -36.84386,-36.8993641 z M 57.353951,13.310083 H 73.123035 V 302.31968 H 186.10008 c 55.61353,0 86.26364,-27.62501 86.26364,-78.93691 0,-21.05087 -2.63071,-34.65759 -7.88551,-41.23611 l -8.31192,-9.64848 -5.69315,-5.70367 4.81114,-4.81643 4.3828,-7.01212 c 7.44384,-13.59533 10.94625,-28.50811 10.94625,-45.61184 0,-52.188697 -30.21353,-79.822201 -84.51325,-79.822201 h -83.64294 v 40.793462 h 14.44705 73.13865 c 8.75767,0 18.38834,3.061728 24.08099,8.32444 8.7577,8.332358 13.13669,18.424514 13.13669,30.704299 0,23.24372 -14.00893,36.40212 -37.21768,36.40212 h -73.13865 v 42.09409 h 73.13865 c 23.20875,0 38.52804,14.03957 38.52804,36.84477 0,7.01729 -1.31439,13.15065 -3.94081,17.97486 -6.13076,12.71828 -17.50901,18.8582 -34.58723,18.8582 h -73.13865 v -57.44429 -16.23354 h -14.44705 v 16.23354 69.28844 h 94.14722 c 8.75767,0 16.63666,-2.18646 24.081,-6.57142 15.32655,-9.20962 22.77259,-22.36981 22.77259,-40.35082 0,-32.01507 -18.82273,-52.18326 -48.162,-52.18326 h -63.06466 v -15.79479 h 63.06466 c 28.0257,0 46.41161,-21.49543 46.41161,-51.75622 0,-8.770875 -2.19268,-17.10437 -6.13317,-24.559926 C 226.81646,67.244742 211.05715,58.040542 196.60631,58.040542 H 117.34422 V 42.245751 h 79.26209 c 11.82343,0 22.76855,2.634435 31.96457,7.897396 18.39181,10.963953 29.3458,32.013379 29.3458,56.572653 0,27.62942 -11.83059,48.68965 -31.53622,59.65362 l 11.38435,8.32444 c 14.45082,12.71828 21.46223,29.8283 21.46223,51.75621 0,17.5425 -6.57096,32.89333 -19.26987,45.61185 -13.57511,11.841 -28.02431,17.54588 -43.35086,17.54588 H 87.128104 V 187.85033 145.75624 129.96535 13.739078 H 188.2905 c 61.74406,0 97.64993,34.654977 97.64993,95.615042 0,22.36643 -5.25461,41.66565 -15.3271,57.0153 11.8232,15.34964 17.51753,34.21033 17.51753,57.0153 0,59.64449 -38.53504,94.71805 -102.03078,94.71805 H 57.353951 Z m 45.103189,72.351845 v 44.301462 h 14.44705 v 0.12285 h 15.76714 v -0.12285 h 57.37151 c 14.45081,0 21.45055,-7.01542 21.45055,-20.61122 0,-15.349668 -8.75139,-23.690242 -21.45055,-23.690242 h -57.37151 -15.76714 z m 30.21419,118.419992 v 41.6651 h 57.37151 c 15.32653,0 22.77064,-7.01807 22.77064,-21.05192 0,-13.5953 -7.4446,-20.61318 -22.77064,-20.61318 z M 31.869134,331.88518 c 2.085271,1.65634 4.212983,3.25635 6.384346,4.80474 h -6.384346 z" />
  </g>
</svg>
